<svg width="16" height="21" viewBox="0 0 16 21" fill="none" xmlns="http://www.w3.org/2000/svg">
<path d="M4.5777 4.63086V7.14679C4.5777 7.45836 4.8299 7.71056 5.14148 7.71056C5.42438 7.71056 5.65884 7.50213 5.69914 7.23014L5.70525 7.14679V4.63086H10.8919V7.14679C10.8919 7.45836 11.1445 7.71056 11.4557 7.71056C11.7389 7.71056 11.9731 7.50213 12.0133 7.23014L12.0194 7.14679V4.63086H13.7175C14.3736 4.63086 14.9335 5.11117 15.0449 5.74628L15.0611 5.87527L15.9207 16.7075C15.9876 17.5768 15.6866 18.4405 15.0954 19.0787C14.5496 19.6678 13.7935 20.0253 12.9961 20.0769L12.7959 20.0833H3.80123C2.93115 20.0833 2.09302 19.7168 1.5018 19.0787C0.956087 18.4896 0.657598 17.7084 0.667218 16.9091L0.676077 16.709L1.53601 5.87377C1.58603 5.22087 2.10812 4.69976 2.74981 4.63717L2.87964 4.63086H4.5777ZM8.33435 8.27085C8.12657 8.26785 7.95524 8.43373 7.95219 8.64212V9.33474C6.58518 9.43195 5.65561 10.2765 5.65561 11.4005C5.65561 12.7796 6.82821 13.1624 7.95219 13.4662V15.8964C7.3592 15.8168 6.80025 15.5708 6.34214 15.1856C6.25588 15.1169 6.14893 15.0787 6.03835 15.0762C5.75827 15.0957 5.54259 15.3302 5.54617 15.6109C5.54562 15.7336 5.59361 15.8515 5.67988 15.939C6.3075 16.504 7.11435 16.8291 7.95825 16.8564L7.95885 17.5375C7.96857 17.7453 8.14537 17.9057 8.35315 17.8953C8.55791 17.8953 8.72377 17.7295 8.72377 17.5247V16.8443C10.3824 16.7349 11.0507 15.7263 11.0507 14.657C11.0507 13.2232 9.84782 12.7857 8.72381 12.4819V10.3433C9.1813 10.4205 9.61268 10.6082 9.98148 10.8901C10.055 10.9405 10.1413 10.9679 10.2306 10.9691C10.5167 10.9691 10.75 10.7388 10.7531 10.4527C10.7537 10.3299 10.7057 10.2121 10.6194 10.1246C10.0866 9.66829 9.41826 9.39915 8.71774 9.35905V8.64212C8.71774 8.43736 8.55188 8.2715 8.34712 8.2715C8.34287 8.27085 8.3386 8.27085 8.33435 8.27085ZM8.72381 13.6971C9.41037 13.8915 9.94501 14.1527 9.93893 14.7907C9.93893 15.2524 9.623 15.7992 8.72381 15.9086V13.6971ZM7.95828 10.3008V12.2875C7.29604 12.0931 6.77961 11.8926 6.77961 11.3276C6.77961 10.7625 7.24744 10.3554 7.95828 10.3008ZM8.29859 0.833313C10.3503 0.833313 12.0195 2.5028 12.0195 4.55454V4.63083H10.892V4.55454C10.892 3.12444 9.72873 1.96083 8.29862 1.96083C6.86852 1.96083 5.70529 3.12444 5.70529 4.55454V4.63083H4.57774V4.55454C4.57774 2.5028 6.24685 0.833313 8.29859 0.833313Z" fill="#637381"/>
</svg>
