<svg width="22" height="22" viewBox="0 0 22 22" fill="none" xmlns="http://www.w3.org/2000/svg">
<path d="M18.6815 7.85583L17.554 9.55167C18.6585 11.7545 18.5828 14.3649 17.3524 16.5H4.64735C3.03081 13.6956 3.44412 10.1631 5.66438 7.80764C7.88463 5.45219 11.3866 4.83102 14.2815 6.27917L15.9774 5.15167C12.4242 2.87323 7.77447 3.31564 4.71472 6.22326C1.65498 9.13089 0.976248 13.752 3.07069 17.4167C3.3962 17.9805 3.99632 18.3294 4.64735 18.3333H17.3432C18.0008 18.3359 18.6094 17.9862 18.9382 17.4167C20.6603 14.4335 20.5647 10.7368 18.6907 7.84667L18.6815 7.85583Z" fill="#637381"/>
<path opacity="0.48" d="M9.70761 14.1258C10.0515 14.4701 10.5181 14.6635 11.0047 14.6635C11.4913 14.6635 11.9579 14.4701 12.3018 14.1258L17.4901 6.34332L9.70761 11.5317C9.36336 11.8755 9.16992 12.3422 9.16992 12.8287C9.16992 13.3153 9.36336 13.7819 9.70761 14.1258Z" fill="#637381"/>
</svg>
