<svg width="52" height="86" viewBox="0 0 52 86" fill="none" xmlns="http://www.w3.org/2000/svg">
<path d="M0 70C0 68.8954 0.895431 68 2 68C3.10457 68 4 68.8954 4 70V86H0V70Z" fill="#FF6C40"/>
<path d="M8 53C8 51.8954 8.89543 51 10 51C11.1046 51 12 51.8954 12 53V86H8V53Z" fill="#FF6C40"/>
<path d="M16 66C16 64.8954 16.8954 64 18 64C19.1046 64 20 64.8954 20 66V86H16V66Z" fill="#FF6C40"/>
<path d="M24 66C24 64.8954 24.8954 64 26 64C27.1046 64 28 64.8954 28 66V86H24V66Z" fill="#FF6C40"/>
<path d="M32 57C32 55.8954 32.8954 55 34 55C35.1046 55 36 55.8954 36 57V86H32V57Z" fill="#FF6C40"/>
<path d="M40 68C40 66.8954 40.8954 66 42 66C43.1046 66 44 66.8954 44 68V86H40V68Z" fill="#FF6C40"/>
<path d="M48 66C48 64.8954 48.8954 64 50 64C51.1046 64 52 64.8954 52 66V86H48V66Z" fill="#FF6C40"/>
</svg>
